<?xml version="1.0" encoding="utf-8"?>
<!-- Generator: Adobe Illustrator 24.2.2, SVG Export Plug-In . SVG Version: 6.00 Build 0)  -->
<svg version="1.1" id="Layer_1" xmlns="http://www.w3.org/2000/svg" xmlns:xlink="http://www.w3.org/1999/xlink" x="0px" y="0px"
	 viewBox="0 0 201 60" style="enable-background:new 0 0 201 60;" xml:space="preserve">
<style type="text/css">
	.st0{display:none;}
	.st1{display:inline;}
	.st2{fill:#253256;}
	.st3{fill:#3452FF;}
	.st4{fill:url(#SVGID_1_);}
	.st5{fill:url(#SVGID_2_);}
	.st6{opacity:0.95;}
	.st7{fill:#FFFFFF;}
	.st8{fill:url(#SVGID_3_);}
</style>
<g class="st0">
	<g class="st1">
		<g>
			<path class="st2" d="M63.8,13.9h5.2v38.7h-5.2V13.9z M69.6,32.1l14.3-18.2h6.4L75.6,32l14.9,20.6h-6.5L69.6,32.1z"/>
			<path class="st2" d="M96.8,51.3c-2-1.2-3.6-2.9-4.6-5.1c-1.1-2.1-1.6-4.5-1.6-7.2c0-2.7,0.5-5,1.6-7.2c1.1-2.1,2.6-3.8,4.6-5.1
				c2-1.2,4.4-1.9,7.2-1.9c2.7,0,5.1,0.6,7.2,1.9c2,1.2,3.6,2.9,4.7,5.1s1.6,4.5,1.6,7.2c0,2.7-0.5,5-1.6,7.2
				c-1.1,2.1-2.6,3.8-4.7,5.1s-4.4,1.9-7.2,1.9C101.2,53.2,98.8,52.5,96.8,51.3z M110.1,46.2c1.5-1.7,2.2-4.1,2.2-7.1
				c0-3.1-0.7-5.4-2.2-7.1c-1.5-1.7-3.5-2.5-6.2-2.5s-4.7,0.8-6.2,2.5c-1.5,1.7-2.2,4.1-2.2,7.1c0,3.1,0.7,5.4,2.2,7.1
				s3.5,2.5,6.2,2.5S108.7,47.9,110.1,46.2z"/>
			<path class="st2" d="M124.2,51.3c-1.1-1.3-1.7-2.8-1.7-4.6V11.2h5v32.6c0,1.6,0.1,2.8,0.3,3.5c0.2,0.7,0.6,1.2,1.2,1.5
				c0.6,0.3,1.5,0.4,2.9,0.4l-0.7,4h-1.6C127.1,53.2,125.3,52.5,124.2,51.3z"/>
			<path class="st2" d="M135.6,13.9h5v5.5h-5V13.9z M135.6,25.5h5v27.1h-5V25.5z"/>
			<path class="st2" d="M167,26.9c1.9,1.3,3.3,3,4.3,5.2c1,2.2,1.5,4.5,1.5,7c0,2.6-0.5,4.9-1.6,7.1c-1.1,2.2-2.6,3.9-4.4,5.1
				c-1.9,1.3-3.9,1.9-6.2,1.9c-1.7,0-3.3-0.3-4.8-1c-1.5-0.7-2.7-1.6-3.6-2.8l-0.6,3.3h-4.4V11.2h5v17.5c1-1.1,2.2-2,3.7-2.7
				c1.5-0.7,3-1,4.7-1C163,25,165.2,25.6,167,26.9z M165.6,46c1.4-1.9,2.1-4.2,2.1-6.9c0-2.8-0.7-5.1-2.1-6.9s-3.3-2.7-5.6-2.7
				c-2.3,0-4.2,0.8-5.7,2.5s-2.3,4.1-2.3,7.2c0,3.2,0.8,5.6,2.3,7.2c1.5,1.6,3.5,2.4,5.8,2.4S164.2,47.8,165.6,46z"/>
			<path class="st2" d="M177.9,25.5h4.1l0.6,4.5c1.4-1.7,2.7-3,4-3.8s2.6-1.2,4-1.2c0.4,0,0.9,0.1,1.3,0.2l-0.5,5.5
				c-0.5-0.1-1-0.2-1.7-0.2c-1.4,0-2.7,0.3-3.9,0.9s-2.1,1.3-2.7,2.1v19.1h-5.3V25.5z"/>
			<path class="st2" d="M195.4,13.9h5v5.5h-5V13.9z M195.4,25.5h5v27.1h-5V25.5z"/>
		</g>
	</g>
	<g class="st1">
		<path class="st3" d="M11.6,0.6l32.9,32.9L33,45.3L10.9,23.7C10.9,23.7,1.2,13.4,11.6,0.6z"/>
		<linearGradient id="SVGID_1_" gradientUnits="userSpaceOnUse" x1="6.2244" y1="7.143" x2="35.7039" y2="36.6225">
			<stop  offset="0.3741" style="stop-color:#3452FF"/>
			<stop  offset="0.6492" style="stop-color:#3452CB"/>
			<stop  offset="0.9259" style="stop-color:#34529A"/>
		</linearGradient>
		<path class="st4" d="M11.6,0.6l32.9,32.9L33,45.3L10.9,23.7C10.9,23.7,1.2,13.4,11.6,0.6z"/>
		<path class="st3" d="M0.3,54.4l32.6-32.5l11.6,11.6L23.4,55.1C23.4,55.1,13.1,64.8,0.3,54.4z"/>
		<linearGradient id="SVGID_2_" gradientUnits="userSpaceOnUse" x1="-0.6558" y1="66.677" x2="55.7397" y2="11.5632">
			<stop  offset="0" style="stop-color:#3452FF"/>
			<stop  offset="0.3392" style="stop-color:#3654FF;stop-opacity:0.6489"/>
			<stop  offset="0.4614" style="stop-color:#3D59FF;stop-opacity:0.5224"/>
			<stop  offset="0.5485" style="stop-color:#4863FF;stop-opacity:0.4322"/>
			<stop  offset="0.619" style="stop-color:#5972FF;stop-opacity:0.3593"/>
			<stop  offset="0.6793" style="stop-color:#6F85FF;stop-opacity:0.2969"/>
			<stop  offset="0.7327" style="stop-color:#8B9CFF;stop-opacity:0.2416"/>
			<stop  offset="0.781" style="stop-color:#ABB7FF;stop-opacity:0.1916"/>
			<stop  offset="0.8252" style="stop-color:#D0D7FF;stop-opacity:0.1458"/>
			<stop  offset="0.8648" style="stop-color:#FAFAFF;stop-opacity:0.1049"/>
			<stop  offset="0.8695" style="stop-color:#FFFFFF;stop-opacity:0.1"/>
		</linearGradient>
		<path class="st5" d="M0.3,54.4l32.6-32.5l11.6,11.6L23.4,55.1C23.4,55.1,13.1,64.8,0.3,54.4z"/>
	</g>
</g>
<g>
	<g class="st6">
		<path class="st7" d="M63.8,13.9h5.2v38.7h-5.2V13.9z M69.6,32.1l14.3-18.2h6.4L75.6,32l14.9,20.6h-6.5L69.6,32.1z"/>
		<path class="st7" d="M96.8,51.3c-2-1.2-3.6-2.9-4.6-5.1c-1.1-2.1-1.6-4.5-1.6-7.2c0-2.7,0.5-5,1.6-7.2s2.6-3.8,4.6-5.1
			c2-1.2,4.4-1.9,7.2-1.9c2.7,0,5.1,0.6,7.2,1.9c2,1.2,3.6,2.9,4.7,5.1c1.1,2.1,1.6,4.5,1.6,7.2c0,2.7-0.5,5-1.6,7.2
			c-1.1,2.1-2.6,3.8-4.7,5.1s-4.4,1.9-7.2,1.9C101.2,53.1,98.8,52.5,96.8,51.3z M110.1,46.2c1.5-1.7,2.2-4.1,2.2-7.1
			c0-3.1-0.7-5.4-2.2-7.1c-1.5-1.7-3.5-2.5-6.2-2.5s-4.7,0.8-6.2,2.5c-1.5,1.7-2.2,4.1-2.2,7.1c0,3.1,0.7,5.4,2.2,7.1
			c1.5,1.7,3.5,2.5,6.2,2.5S108.7,47.9,110.1,46.2z"/>
		<path class="st7" d="M124.2,51.2c-1.1-1.3-1.7-2.8-1.7-4.6V11.1h5v32.6c0,1.6,0.1,2.8,0.3,3.5c0.2,0.7,0.6,1.2,1.2,1.5
			c0.6,0.3,1.5,0.4,2.9,0.4l-0.7,4h-1.6C127.1,53.1,125.3,52.5,124.2,51.2z"/>
		<path class="st7" d="M135.6,13.9h5v5.5h-5V13.9z M135.6,25.5h5v27.1h-5V25.5z"/>
		<path class="st7" d="M167,26.9c1.9,1.3,3.3,3,4.3,5.2c1,2.2,1.5,4.5,1.5,7c0,2.6-0.5,4.9-1.6,7.1c-1.1,2.2-2.6,3.9-4.4,5.1
			c-1.9,1.3-3.9,1.9-6.2,1.9c-1.7,0-3.3-0.3-4.8-1c-1.5-0.7-2.7-1.6-3.6-2.8l-0.6,3.3h-4.4V11.1h5v17.5c1-1.1,2.2-2,3.7-2.7
			c1.5-0.7,3-1,4.7-1C163,24.9,165.2,25.6,167,26.9z M165.6,45.9c1.4-1.9,2.1-4.2,2.1-6.9c0-2.8-0.7-5.1-2.1-6.9
			c-1.4-1.8-3.3-2.7-5.6-2.7c-2.3,0-4.2,0.8-5.7,2.5c-1.5,1.7-2.3,4.1-2.3,7.2c0,3.2,0.8,5.6,2.3,7.2c1.5,1.6,3.5,2.4,5.8,2.4
			S164.2,47.8,165.6,45.9z"/>
		<path class="st7" d="M177.9,25.5h4.1l0.6,4.5c1.4-1.7,2.7-3,4-3.8s2.6-1.2,4-1.2c0.4,0,0.9,0.1,1.3,0.2l-0.5,5.5
			c-0.5-0.1-1-0.2-1.7-0.2c-1.4,0-2.7,0.3-3.9,0.9s-2.1,1.3-2.7,2.1v19.1h-5.3V25.5z"/>
		<path class="st7" d="M195.4,13.9h5v5.5h-5V13.9z M195.4,25.5h5v27.1h-5V25.5z"/>
	</g>
	<g>
		<linearGradient id="SVGID_3_" gradientUnits="userSpaceOnUse" x1="-7.1539" y1="-8.3697" x2="47.8507" y2="50.0198">
			<stop  offset="0.2512" style="stop-color:#FFFFFF"/>
			<stop  offset="0.7325" style="stop-color:#FFFFFF;stop-opacity:0"/>
		</linearGradient>
		<path class="st8" d="M11.6,0.6l32.9,32.9L33,45.3L10.9,23.7C10.9,23.7,1.2,13.4,11.6,0.6z"/>
		<path class="st7" d="M0.3,54.4l32.6-32.5l11.6,11.6L23.4,55.1C23.4,55.1,13.1,64.8,0.3,54.4z"/>
	</g>
</g>
</svg>
